<?xml version="1.0" encoding="UTF-8"?>
<svg width="64px" height="70px" viewBox="0 0 64 70" version="1.1" xmlns="http://www.w3.org/2000/svg" xmlns:xlink="http://www.w3.org/1999/xlink">
    <!-- Generator: Sketch 50.2 (55047) - http://www.bohemiancoding.com/sketch -->
    <title>Logo Copy</title>
    <desc>Created with Sketch.</desc>
    <defs></defs>
    <g id="Login" stroke="none" stroke-width="1" fill="none" fill-rule="evenodd">
        <g id="Landing-page-Mobile" transform="translate(-119.000000, -105.000000)" fill-rule="nonzero">
            <g id="Top-Content" transform="translate(18.000000, 105.000000)">
                <g id="Royal-Start-Logo" transform="translate(76.000000, 0.000000)">
                    <g id="Logo-Copy" transform="translate(25.599999, 0.000000)">
                        <g id="RC-ROYALSTART-LOGO-QUAD">
                            <g id="FILET" transform="translate(6.703030, 0.000000)" fill="#ED1C24">
                                <path d="M45.8023413,15.1245324 C45.9292176,15.3997324 46.2521755,15.5258657 46.5289965,15.4111991 C47.2095148,15.1245324 48.3398672,14.6314658 48.3398672,14.6314658 C48.6282224,14.4938658 48.7435645,14.1613325 48.605154,13.8861325 C46.4828596,9.63199943 43.2186787,6.1002663 39.1240347,3.63493312 C38.8587479,3.47439979 38.5011875,3.56613312 38.3512428,3.8413331 L37.6591903,5.04533303 C37.5092455,5.29759968 37.589985,5.61866633 37.8322034,5.77919966 C41.2809317,8.09546618 44.0606759,11.329066 45.8023413,15.1245324" id="Shape"></path>
                                <path d="M5.8017068,10.8589327 C5.64022788,10.744266 5.42107792,10.7901327 5.30573584,10.950666 C2.50292321,15.0557324 1.23416029,19.1951989 0.980407709,24.7335985 C0.968873501,24.9285318 1.13035242,25.1005318 1.32643396,25.1005318 C1.49944709,25.1005318 1.660926,24.8367985 1.660926,24.5959985 C1.660926,19.7455988 3.22957834,15.0213324 5.88244626,11.3405327 C5.98625413,11.191466 5.95165151,10.9735993 5.8017068,10.8589327" id="Shape"></path>
                                <path d="M19.8042357,1.69706657 L19.7234963,1.39893325 C19.6427568,1.10079993 19.3313332,0.917333279 19.0314438,1.00906661 C14.4523631,2.33919986 10.3807875,4.91919971 7.22041443,8.50826616 C7.01279867,8.73759948 6.92052501,8.9669328 7.16274338,9.17333279 C7.37035913,9.34533278 7.63564593,9.21919945 7.76252222,9.08159946 C10.9574979,5.82506632 14.7637867,3.45146646 19.3890042,2.39653319 C19.6888936,2.31626653 19.8849752,2.00666655 19.8042357,1.69706657" id="Shape"></path>
                                <path d="M49.8854511,16.924799 C49.7816432,16.6266657 49.4586854,16.477599 49.158796,16.580799 C49.158796,16.580799 47.9246357,17.0394657 47.2095148,17.303199 C46.9326938,17.406399 46.7942833,17.7045323 46.8750227,17.9797323 C47.4863358,19.9978655 47.8092936,22.142132 47.8092936,24.3551985 C47.8092936,26.3389318 47.5440068,28.2653316 47.0595701,30.0999982 C47.0711043,30.3407982 47.221049,30.5471982 47.4748016,30.6159982 L49.8277801,31.2351981 C50.1276695,31.3154648 50.4390931,31.1319981 50.5198326,30.8338648 C50.9812009,28.9189316 51.2118851,26.9466651 51.2118851,24.9629318 C51.2118851,22.2223987 50.7620509,19.5162655 49.8854511,16.924799" id="Shape"></path>
                                <path d="M35.929059,3.9445331 L36.4480984,2.8322665 C36.5749747,2.54559985 36.4596326,2.21306653 36.1712774,2.08693321 C32.9878359,0.699466625 29.5967786,0 26.0903793,0 C24.8100822,0 23.529785,0.0917333279 22.2725563,0.28666665 C21.9611327,0.332533314 21.7535169,0.630666629 21.811188,0.940266611 L21.8919274,1.42186658 C21.9380643,1.70853323 22.2033511,1.90346655 22.5032405,1.88053322 C23.2414298,1.81173323 23.9796192,1.76586656 24.7408769,1.76586656 C28.4894946,1.76586656 32.0420308,2.64879984 35.1678012,4.19679975 C35.4446222,4.34586641 35.7906485,4.23119975 35.929059,3.9445331" id="Shape"></path>
                                <path d="M49.1818644,33.2762647 L46.8865569,32.4506647 C46.5982017,32.3474647 46.2867781,32.4965314 46.171436,32.7717314 C44.6950573,36.5327978 42.2036683,39.7663976 38.9394874,42.1743975 C38.697269,42.3578641 38.639598,42.6903975 38.8126111,42.9426641 L40.2197845,44.9263973 C40.4043318,45.178664 40.7618923,45.247464 41.0156449,45.0525306 C44.8680705,42.2202642 47.7977594,38.413331 49.5278906,33.987198 C49.6316985,33.711998 49.4817538,33.3909313 49.1818644,33.2762647" id="Shape"></path>
                                <path d="M26.0903793,49.8226637 C30.4964469,49.570397 34.5218856,48.8823971 38.2128323,46.8527972 C38.4896533,46.7037305 38.5819269,46.3482639 38.420448,46.0845306 L37.1978219,43.9861307 C37.0824798,43.7911974 36.817193,43.5847974 36.6557141,43.7109307 C33.5876147,46.1074639 29.1008077,46.8527972 24.7408769,46.8527972" id="Shape"></path>
                                <path d="M1.43024183,27.2333317 C1.11881821,27.256265 1.16495504,27.497065 1.23416029,27.7951983 C2.05308909,31.2925315 2.91815471,33.7578647 4.47527284,36.5786645 C5.19039376,37.8743977 5.82477522,37.7941311 4.98277801,36.4410645 C3.3103178,33.746398 2.39911534,30.8797315 1.90314438,27.6231984 C1.85700754,27.290665 1.58018654,27.2103984 1.46484446,27.221865" id="Shape"></path>
                                <path d="M28.0050579,46.7151972 C27.3591422,46.7839972 26.7016923,46.8183972 26.0442424,46.8298639 C26.0442424,46.8298639 26.0442424,46.8298639 26.0442424,46.8298639 C26.0442424,46.8298639 26.0442424,46.8298639 26.0442424,46.8298639 L25.4906004,46.8298639 C21.2460118,46.8298639 17.105231,45.6373306 13.5180922,43.3898641 L12.9990528,43.0687974 C12.952916,43.0343974 12.8837107,43.0343974 12.8260397,43.0458641 L3.93316505,45.9239973 L6.32074617,38.619731 C6.34381459,38.5623977 6.33228038,38.4935977 6.28614355,38.4362644 C5.98625413,38.0234644 5.6632963,37.5533311 5.32880426,37.0143978 C5.32880426,37.0143978 4.59061492,35.7759979 4.49834126,35.5925312 C4.46373863,35.5237312 4.38299917,35.4778646 4.30225971,35.4893312 C4.22152025,35.5007979 4.152315,35.5581312 4.11771238,35.6269312 C4.11771238,35.6269312 0.622847251,46.2450639 0.115342083,47.8962638 C-0.392163084,49.5474637 0.934270876,50.0749303 2.00695225,49.7309304 C3.07963363,49.3869304 12.5261503,46.3253306 12.5261503,46.3253306 C16.4477811,48.6301304 20.9345881,49.8570637 25.5021347,49.8570637 L26.1249819,49.845597 C26.1249819,49.845597 26.1249819,49.845597 26.1249819,49.845597 C26.1249819,49.845597 26.1249819,49.845597 26.1249819,49.845597 C26.1249819,49.845597 26.1249819,49.845597 26.1365161,49.845597 C26.8747054,49.8226637 27.624429,49.7653304 28.3510841,49.673597 C28.4664262,49.6621304 28.5471657,49.5589304 28.5356314,49.4442637 L28.2472762,46.9101305 C28.2126736,46.7839972 28.1088657,46.7037305 28.0050579,46.7151972" id="Shape"></path>
                            </g>
                            <g id="CHAT_CHIEN" transform="translate(11.490908, 4.796154)" fill="#ED1C24">
                                <g id="Group">
                                    <path d="M16.0106657,7.25178418 C17.639062,6.66473499 17.5707377,5.07624893 17.2405035,2.90071367 C16.3750621,2.34819678 15.6576567,2.11798141 15.1679991,2.34819678 C14.2000712,2.79711676 15.3729721,5.46761506 15.1566117,7.59710724 C15.429909,7.48199955 15.7032063,7.36689187 16.0106657,7.25178418" id="Shape"></path>
                                    <path d="M41.4842498,24.3452755 C41.4842498,24.3452755 38.4210428,19.4301773 33.1486827,14.1467345 C29.7324667,10.7280363 20.6225573,-1.08201224 18.0034584,0.126618454 C17.3316026,0.437409205 17.6959989,1.8302122 17.9123593,3.37265518 C17.9579088,3.70646747 17.992071,4.04027976 18.0148458,4.37409205 C18.0148458,4.39711358 18.0148458,4.42013512 18.0148458,4.44315666 C18.0148458,4.52373204 18.0262332,4.61581819 18.0262332,4.69639357 C18.0262332,4.73092587 18.0262332,4.76545818 18.0262332,4.79999048 C18.0262332,4.86905509 18.0262332,4.94963047 18.0262332,5.01869509 C18.0262332,5.05322739 18.0262332,5.09927047 18.0148458,5.13380277 C18.0148458,5.20286738 18.0034584,5.26042122 18.0034584,5.32948584 C18.0034584,5.37552891 17.992071,5.41006122 17.992071,5.45610429 C17.9806836,5.51365813 17.9806836,5.57121198 17.9692962,5.64027659 C17.9579088,5.68631966 17.9579088,5.73236274 17.9465215,5.76689504 C17.9351341,5.82444888 17.9237467,5.88200273 17.9123593,5.93955657 C17.9009719,5.98559964 17.8895845,6.02013195 17.8781971,6.06617502 C17.8668097,6.12372887 17.844035,6.16977194 17.8326476,6.22732578 C17.8212602,6.27336886 17.7984854,6.30790116 17.787098,6.35394424 C17.7643233,6.39998731 17.7415485,6.45754115 17.7187737,6.50358423 C17.6959989,6.53811653 17.6846116,6.58415961 17.6618368,6.61869191 C17.639062,6.66473499 17.6048999,6.71077806 17.5821251,6.75682114 C17.5593503,6.79135344 17.5365755,6.82588575 17.5138008,6.87192882 C17.4796386,6.9179719 17.4454764,6.96401497 17.4113143,7.01005804 C17.3885395,7.04459035 17.3543773,7.07912265 17.3316026,7.11365496 C17.2974404,7.15969803 17.2518909,7.19423034 17.2063413,7.24027341 C17.1721792,7.27480572 17.1494044,7.29782726 17.1152422,7.33235956 C17.0696927,7.37840264 17.0127557,7.41293494 16.9672062,7.44746725 C16.933044,7.47048879 16.8988819,7.50502109 16.8647197,7.52804263 C16.8077828,7.56257493 16.7394585,7.60861801 16.6711341,7.64315031 C16.636972,7.66617185 16.6028098,7.67768262 16.5686477,7.70070416 C16.4661612,7.758258 16.3522873,7.80430107 16.2270261,7.85034415 C16.0106657,7.93091953 15.8056928,8.01149491 15.6121072,8.09207029 C15.6007198,8.09207029 15.5893324,8.10358106 15.577945,8.10358106 C15.3957468,8.18415644 15.2135486,8.26473182 15.0427378,8.34530719 C12.8905218,9.39278713 12.0934047,10.693504 11.159639,12.1438608 C9.95257598,13.9970946 9.15545891,14.5956545 7.60677432,15.1827037 C6.05808973,15.7697529 2.58493678,16.8057221 0.580756722,17.5654328 C-0.683243203,18.0488851 0.728792749,22.0431218 0.728792749,22.0431218 C0.728792749,22.0431218 1.2867747,24.667577 4.27027002,25.46182 C4.27027002,25.46182 7.66371125,25.8646969 11.9681434,26.6359184 C14.5416928,20.0978019 19.2788457,14.4575253 19.905152,14.5611222 C20.4289718,14.6416976 20.7933681,18.0719066 21.909332,19.4186665 C21.909332,19.4186665 22.9797464,19.3035588 23.8338004,19.3841342 C26.5212236,19.6373711 28.7645388,21.2028357 30.4726468,23.424414 C31.713872,25.0359216 33.0575836,25.7841215 33.3081061,26.6128969 C33.5586286,27.4416722 32.1579801,34.0718749 26.8970074,34.4977733 C24.2209715,34.7164779 21.4766113,40.4488407 23.2985932,42.3826498 C23.0708455,42.4056713 22.8544851,42.4171821 22.6381248,42.4402036 C24.5512057,44.661782 30.2221243,40.7135883 31.2811513,40.0574745 C37.4189527,36.2589209 41.2792768,31.4359089 42.0877813,26.8431122 C42.2244299,25.9337615 42.0422317,25.0244108 41.4842498,24.3452755 M14.1772965,15.7582421 C13.9153866,16.2762267 12.3553146,15.6201129 12.2072786,15.3783868 C12.0592425,15.1366606 12.2186659,12.7078885 12.867747,13.0417008 C13.516828,13.375513 14.4392063,15.2402576 14.1772965,15.7582421" id="Shape"></path>
                                    <path d="M27.8535479,22.6186602 C27.2727912,22.4229771 27.1816921,23.9884416 27.1816921,23.9884416 C27.1816921,23.9884416 28.7531514,24.5754908 29.0036739,24.4949155 C29.2769712,24.4143401 28.445692,22.8143433 27.8535479,22.6186602" id="Shape"></path>
                                </g>
                            </g>
                            <g id="TXT" transform="translate(0.000000, 57.553843)">
                                <path d="M6.37734989,3.57859537 C6.37734989,1.43599687 5.70061672,0.159555208 3.24602521,0.159555208 L0.0344101613,0.159555208 L0.0344101613,11.3626101 L2.2825407,11.3626101 L2.2825407,7.00903233 L3.02809419,7.00903233 L4.40450064,11.3626101 L6.74439161,11.3626101 L5.09270387,6.51896991 C6.19382903,5.84655868 6.37734989,4.77525943 6.37734989,3.57859537 M3.22308511,4.99179864 L2.27107065,4.99179864 L2.27107065,2.1767889 L3.22308511,2.1767889 C4.08333914,2.1767889 4.12921935,2.92897774 4.12921935,3.57859537 C4.12921935,4.228213 4.08333914,4.99179864 3.22308511,4.99179864" id="Shape" fill="#ED1C24"></path>
                                <path d="M9.97894677,0.0455872022 C8.76312107,0.0455872022 8.01756758,0.547046426 7.51288521,1.17387046 C6.7214515,2.1312017 6.67557129,3.61278577 6.67557129,5.76678107 C6.67557129,7.92077637 6.7214515,9.40236044 7.51288521,10.3596917 C8.01756758,10.9865157 8.76312107,11.4879749 9.97894677,11.4879749 C11.1947725,11.4879749 11.940326,10.9865157 12.4450083,10.3596917 C13.236442,9.40236044 13.2823223,7.92077637 13.2823223,5.76678107 C13.2823223,3.61278577 13.236442,2.1312017 12.4450083,1.17387046 C11.951796,0.547046426 11.2062425,0.0455872022 9.97894677,0.0455872022 M10.7474404,9.03766283 C10.6212698,9.28839244 10.4033388,9.48213805 9.99041683,9.48213805 C9.57749489,9.48213805 9.35956387,9.28839244 9.23339328,9.03766283 C8.96958204,8.51341 8.93517188,7.12300034 8.93517188,5.76678107 C8.93517188,4.41056181 8.96958204,3.00875534 9.23339328,2.49589932 C9.35956387,2.24516971 9.57749489,2.0514241 9.99041683,2.0514241 C10.4033388,2.0514241 10.6212698,2.24516971 10.7474404,2.49589932 C11.0112516,3.02015214 11.0456618,4.41056181 11.0456618,5.76678107 C11.0456618,7.12300034 11.0112516,8.5248068 10.7474404,9.03766283" id="Shape" fill="#ED1C24"></path>
                                <polygon id="Shape" fill="#ED1C24" points="17.1592004 0.170952008 16.207186 4.228213 15.2551715 0.170952008 12.7891099 0.170952008 15.0831207 7.15719074 15.0831207 11.3740069 17.3312512 11.3740069 17.3312512 7.15719074 19.625262 0.170952008"></polygon>
                                <path d="M21.0016684,0.170952008 L18.0997448,11.3740069 L20.4396358,11.3740069 L20.8066775,9.63029646 L23.3989097,9.63029646 L23.7659514,11.3740069 L26.1058424,11.3740069 L23.2039188,0.170952008 L21.0016684,0.170952008 Z M21.2310695,7.61306276 L22.1027936,3.45323056 L22.9745177,7.61306276 L21.2310695,7.61306276 Z" id="Shape" fill="#ED1C24"></path>
                                <path d="M31.2673666,11.2486421 C30.7970944,10.7813733 30.5218131,10.0861685 30.510343,9.35677324 L28.7324847,9.35677324 L28.7324847,0.170952008 L26.4843541,0.170952008 L26.4843541,11.3740069 L31.4050072,11.3740069 C31.359127,11.3284197 31.3132468,11.2942293 31.2673666,11.2486421" id="Shape" fill="#ED1C24"></path>
                                <path d="M37.6905967,0.752188836 C37.2317945,0.296316814 36.6468218,0.0455872022 35.5801068,0.0455872022 C34.4675116,0.0455872022 33.8595987,0.364697617 33.3319762,0.877553642 C32.8272939,1.37901287 32.5405425,2.1539953 32.3799618,2.94037454 C32.2882013,3.40764336 32.2423211,3.80653138 32.2423211,4.2738002 C32.2423211,5.04878264 32.5864227,5.68700347 33.4581468,6.09728829 L34.5478019,6.62154111 C35.0410142,6.83808032 35.2933554,7.08880994 35.2933554,7.53328516 C35.2933554,7.72703077 35.2818854,8.05753798 35.2130651,8.3652516 C35.1213046,8.83252042 35.0066041,9.11744043 34.7886731,9.34537644 C34.5822121,9.55051885 34.341341,9.60750285 34.0545896,9.60750285 C33.8022484,9.60750285 33.6301976,9.51632845 33.504027,9.39096364 C33.3893265,9.27699564 33.3319762,9.09464683 33.3319762,8.82112362 C33.3319762,8.66156841 33.3434463,8.4450292 33.4007966,8.17150599 L31.2788366,8.17150599 C31.1985462,8.62737801 31.1641361,8.96928202 31.1641361,9.29978924 C31.1641361,9.31118604 31.1641361,9.33397964 31.1641361,9.34537644 C31.1756061,9.90381967 31.3820671,10.4280725 31.7376388,10.7813733 C31.8638094,10.9067381 32.0129201,11.0207061 32.1735008,11.1118805 C32.5864227,11.3512133 33.1255153,11.4879749 33.8710688,11.4879749 C35.0868945,11.4879749 35.7750977,11.2258485 36.3371303,10.6560085 C36.8074025,10.1887397 37.0826838,9.63029646 37.335025,8.3766484 C37.4497255,7.82960197 37.4726656,7.31674595 37.4726656,6.88366753 C37.4726656,5.92633628 37.0597437,5.39068666 35.8783282,4.83224343 L34.9721939,4.41056181 C34.5936821,4.2396098 34.3986912,3.98888019 34.3986912,3.62418257 C34.3986912,3.40764336 34.4331014,3.16831055 34.4789816,2.92897774 C34.5248618,2.68964493 34.6395624,2.33634411 34.8230832,2.1425985 C34.995134,1.97164649 35.1901249,1.90326569 35.419526,1.90326569 C35.6603971,1.90326569 35.7980378,1.99444009 35.8783282,2.0742177 C35.9930287,2.1881857 36.0389089,2.35913771 36.0389089,2.62126412 C36.0389089,2.79221613 36.0274389,2.99735854 35.9586185,3.31646896 L38.0805785,3.31646896 C38.1149887,3.08853295 38.1493988,2.88339054 38.1608689,2.70104173 C38.1723389,2.51869292 38.183809,2.34774091 38.183809,2.1881857 C38.183809,1.77790088 38.0920485,1.37901287 37.9199977,1.05990245 C37.8626475,0.945934445 37.7823571,0.84336324 37.6905967,0.752188836" id="Shape" fill="#808285"></path>
                                <polygon id="Shape" fill="#808285" points="44.1367669 2.0514241 44.5152787 0.170952008 38.7802518 0.170952008 38.619671 0.991521647 38.40174 2.0514241 38.8490721 2.0514241 40.2140085 2.0514241 38.3443897 11.3740069 40.4663497 11.3740069 42.3359684 2.0514241"></polygon>
                                <path d="M48.3348066,0.170952008 L46.2472568,0.170952008 L41.2463133,11.3740069 L43.528854,11.3740069 L44.2629375,9.56191565 L46.728999,9.56191565 L46.717529,11.3740069 L48.4724472,11.3740069 L48.862429,11.3740069 L48.7936087,9.80124846 L48.3348066,0.170952008 Z M46.6831188,7.67004676 L45.008491,7.67004676 L46.7060589,3.28227856 L46.6831188,7.67004676 Z" id="Shape" fill="#808285"></path>
                                <path d="M54.3680548,0.170952008 L51.3743708,0.170952008 L49.4359317,9.85823247 L49.1262403,11.3854037 L49.504752,11.3854037 L51.2482002,11.3854037 L52.1313944,6.96344513 L52.8884179,6.96344513 L53.3586901,11.3854037 L55.4806501,11.3854037 L54.8842073,6.56455711 C55.8132816,6.07449469 56.3064939,5.52744826 56.7079458,3.58999217 C56.7652961,3.28227856 56.8111763,2.98596174 56.8341164,2.71243853 C56.8455864,2.56428012 56.8570565,2.41612171 56.8570565,2.27936011 C56.8570565,1.86907529 56.7767661,1.50437767 56.5932453,1.18526726 C56.2491437,0.558443226 55.5380003,0.170952008 54.3680548,0.170952008 M54.5859859,3.57859537 C54.4483452,4.285197 54.2189441,5.11716344 53.4160404,5.11716344 L52.4984361,5.11716344 L53.117819,2.0514241 L53.9551329,2.0514241 C54.5401056,2.0514241 54.6892163,2.34774091 54.6892163,2.80361293 C54.6892163,3.04294574 54.6318661,3.31646896 54.5859859,3.57859537" id="Shape" fill="#808285"></path>
                                <polygon id="Shape" fill="#808285" points="57.4649694 0.170952008 57.2814485 1.09409285 57.0864576 2.0514241 57.4993795 2.0514241 58.8987261 2.0514241 57.0291073 11.3740069 59.1510673 11.3740069 61.020686 2.0514241 62.8214845 2.0514241 63.1999962 0.170952008"></polygon>
                            </g>
                        </g>
                    </g>
                </g>
            </g>
        </g>
    </g>
</svg>